<?xml version="1.0" standalone="no"?>
<!DOCTYPE svg PUBLIC "-//W3C//DTD SVG 20010904//EN"
 "http://www.w3.org/TR/2001/REC-SVG-20010904/DTD/svg10.dtd">
<svg version="1.0" xmlns="http://www.w3.org/2000/svg"
 width="1280.000000pt" height="1042.000000pt" viewBox="0 0 1280.000000 1042.000000"
 preserveAspectRatio="xMidYMid meet">
<g transform="translate(0.000000,1042.000000) scale(0.100000,-0.100000)"
fill="#000000" stroke="none">
<path d="M8844 10368 c-15 -29 -64 -152 -109 -273 -446 -1193 -1053 -1715
-1858 -1599 -264 38 -411 92 -826 301 -402 202 -405 202 -280 -18 178 -314
425 -646 634 -854 140 -140 259 -232 404 -312 57 -31 136 -83 175 -115 39 -32
89 -64 111 -71 39 -13 42 -18 143 -212 62 -121 98 -203 93 -208 -19 -19 -396
-94 -886 -176 -170 -29 -539 -78 -675 -91 -227 -21 -527 -50 -662 -64 -76 -8
-225 -20 -330 -27 -220 -13 -270 -20 -275 -36 -7 -19 24 -23 233 -33 483 -23
937 -9 1454 45 316 33 449 54 816 126 166 32 326 61 356 65 54 6 56 6 81 -27
14 -19 60 -99 102 -178 96 -181 160 -281 257 -401 151 -188 257 -289 614 -586
259 -216 304 -262 360 -366 l39 -73 0 -125 c0 -121 -1 -128 -32 -190 -115
-231 -365 -377 -657 -383 l-91 -2 -129 63 c-163 81 -215 92 -431 92 -214 0
-268 -12 -428 -89 -153 -75 -184 -77 -314 -27 -99 39 -291 94 -433 125 -52 11
-122 26 -155 33 -43 9 -166 13 -440 13 -320 0 -399 -3 -499 -18 -106 -17 -133
-18 -233 -7 -130 14 -262 8 -428 -20 -255 -43 -409 -117 -495 -237 -92 -128
-108 -279 -51 -458 62 -190 102 -243 454 -604 652 -667 837 -898 923 -1146 24
-69 28 -96 28 -195 1 -204 -49 -301 -262 -505 -391 -375 -442 -434 -524 -615
-51 -112 -53 -118 -53 -205 0 -83 3 -97 34 -160 40 -82 136 -181 225 -234 68
-40 216 -92 341 -120 204 -45 301 -54 545 -54 255 1 417 17 549 55 98 28 191
27 436 -3 165 -21 233 -24 525 -24 l335 0 150 32 c83 18 218 40 300 48 83 8
242 24 355 35 332 33 710 118 964 216 182 70 420 208 642 371 140 103 169 112
227 71 18 -12 129 -116 247 -232 277 -272 409 -371 645 -486 183 -89 394 -147
620 -170 61 -6 129 -16 152 -21 55 -12 183 -12 252 1 31 5 126 17 211 26 258
26 435 67 471 110 15 19 -9 37 -176 137 -165 99 -293 196 -382 291 -86 90
-130 153 -229 332 -110 200 -144 246 -268 370 -110 109 -183 163 -415 303 -49
30 -95 64 -101 76 -15 28 -1 58 84 175 365 503 555 1086 556 1700 0 715 -234
1377 -691 1950 -269 339 -671 658 -1074 855 -137 67 -585 255 -777 326 -97 36
-390 183 -478 241 -81 52 -231 201 -250 247 -9 23 -10 38 -3 50 11 19 67 56
182 120 46 26 82 51 80 56 -8 20 -124 7 -223 -25 -66 -21 -102 -28 -108 -22
-21 21 -95 382 -99 484 l-2 56 60 61 c111 111 269 363 370 591 140 316 192
600 193 1046 0 337 -64 743 -131 828 -11 14 -25 26 -30 26 -5 0 -21 -24 -35
-52z"/>
<path d="M3840 9212 c-46 -49 -69 -120 -109 -328 -17 -87 -45 -219 -62 -293
-36 -150 -52 -177 -127 -205 -96 -36 -206 -130 -301 -257 -68 -90 -104 -175
-162 -387 -22 -81 -46 -153 -53 -160 -39 -40 -395 -7 -506 46 -53 26 -46 48
35 109 89 66 93 77 27 68 -138 -19 -262 -68 -297 -117 -20 -30 -19 -71 3 -91
52 -47 281 -110 457 -126 66 -6 172 -16 235 -22 179 -17 661 -22 909 -9 322
16 432 34 839 137 131 33 252 111 252 162 0 46 -89 110 -153 111 -35 0 -43
-20 -23 -59 22 -42 20 -66 -8 -85 -64 -42 -297 -96 -412 -96 -82 0 -92 13
-110 150 -37 276 -71 357 -218 522 l-96 107 0 56 c0 64 10 133 51 364 32 182
38 321 15 376 -17 40 -60 65 -112 65 -30 0 -44 -7 -74 -38z"/>
<path d="M1573 7673 c-53 -18 -103 -64 -103 -93 0 -12 15 -37 33 -54 48 -49
233 -107 432 -136 44 -7 116 -20 160 -30 44 -10 141 -26 215 -35 74 -9 209
-27 300 -41 91 -14 226 -28 301 -32 96 -6 143 -13 160 -24 13 -8 49 -57 79
-109 30 -52 77 -123 104 -159 27 -36 57 -78 68 -95 24 -39 23 -115 -1 -213
-28 -112 -44 -237 -37 -285 4 -23 19 -62 33 -87 15 -25 38 -76 53 -114 14 -38
30 -71 35 -73 6 -1 22 21 38 50 15 29 49 83 76 119 45 62 51 78 85 220 20 84
43 187 51 228 19 90 41 115 112 124 26 4 262 11 523 16 611 12 769 23 1320 91
757 93 1209 219 1265 353 36 86 -37 157 -229 221 -93 31 -205 55 -259 55 l-41
0 29 -29 c15 -17 60 -47 99 -67 128 -67 179 -121 156 -164 -12 -23 -81 -65
-150 -91 -94 -36 -396 -99 -570 -119 -96 -11 -201 -25 -232 -31 -97 -17 -211
-28 -498 -49 -151 -11 -302 -25 -335 -30 -87 -13 -678 -31 -759 -22 -38 4 -71
12 -73 19 -4 10 101 142 178 224 l34 35 147 12 c81 7 227 23 325 36 98 14 246
32 328 41 83 9 179 23 215 31 35 8 112 22 169 30 230 34 313 100 229 181 -18
18 -46 37 -61 42 -35 14 -127 14 -127 1 0 -5 10 -30 22 -55 20 -41 21 -47 6
-61 -14 -14 -98 -37 -333 -90 -33 -7 -125 -20 -205 -29 -80 -9 -183 -23 -230
-31 -116 -22 -634 -34 -1130 -28 -448 6 -652 16 -825 44 -66 11 -190 26 -275
35 -85 9 -184 23 -220 30 -36 8 -135 26 -220 39 -145 23 -308 64 -351 87 -25
13 -24 40 2 73 11 15 18 33 15 41 -7 19 -77 19 -133 -2z"/>
<path d="M776 7574 c-91 -33 -144 -103 -131 -171 4 -21 21 -49 46 -72 43 -42
230 -142 301 -161 23 -7 93 -27 153 -45 153 -46 352 -92 476 -110 57 -8 145
-23 194 -34 50 -11 168 -29 263 -41 251 -30 283 -45 249 -115 -18 -37 -23
-170 -10 -250 8 -50 74 -117 159 -163 34 -17 64 -38 67 -46 3 -8 -1 -53 -9
-100 -23 -135 2 -193 108 -251 91 -50 200 -32 277 46 45 45 61 86 61 159 0 76
-7 89 -88 172 l-65 67 26 88 c32 104 33 115 7 213 -11 41 -20 85 -20 97 0 12
-10 34 -23 48 -18 21 -40 29 -122 45 -162 30 -351 59 -495 75 -74 9 -164 23
-200 31 -36 8 -135 26 -220 40 -85 14 -198 36 -250 49 -52 13 -117 27 -145 30
-64 9 -356 105 -423 139 -62 31 -121 81 -133 113 -6 17 -3 41 12 83 28 83 17
94 -65 64z"/>
<path d="M173 7435 c-52 -22 -101 -66 -138 -122 -42 -61 -43 -73 -10 -129 62
-105 263 -198 562 -259 114 -23 552 -81 798 -106 154 -16 759 -16 798 -1 31
13 35 28 9 36 -10 4 -124 11 -253 16 -220 9 -318 17 -484 41 -38 5 -153 19
-255 29 -419 45 -786 127 -903 202 -100 64 -116 117 -72 227 14 34 23 66 20
71 -8 14 -34 12 -72 -5z"/>
<path d="M2083 6510 c-18 -11 -33 -26 -33 -33 0 -7 18 -31 40 -52 78 -76 31
-131 -87 -101 -32 7 -33 7 -33 -24 0 -126 172 -172 280 -74 46 42 64 90 57
151 -6 58 -32 92 -88 120 -68 33 -99 36 -136 13z"/>
<path d="M4335 6506 c-61 -37 -145 -157 -145 -206 0 -26 35 -97 64 -128 33
-37 76 -55 131 -55 116 -1 188 46 220 143 21 64 13 116 -26 169 -65 91 -169
123 -244 77z"/>
<path d="M3397 6003 c-4 -7 -14 -82 -22 -169 -13 -138 -17 -162 -43 -208 -16
-28 -37 -76 -46 -106 -41 -128 -205 -414 -289 -502 -49 -53 -57 -41 -57 85 0
61 -5 128 -10 148 -14 49 -72 111 -144 154 -55 32 -67 35 -138 35 -124 0 -150
-17 -242 -157 -63 -96 -110 -131 -194 -143 -73 -10 -117 -35 -171 -97 -46 -52
-55 -84 -49 -183 3 -58 8 -74 34 -106 79 -98 208 -126 313 -69 48 26 86 63
149 144 18 24 24 24 123 22 101 -2 106 -1 177 34 41 19 83 35 94 35 18 0 20
-5 15 -35 -3 -19 -48 -123 -100 -232 -108 -226 -140 -310 -205 -548 l-47 -170
0 -360 c0 -421 -1 -416 100 -614 94 -185 210 -304 419 -430 77 -47 90 -59 132
-127 63 -101 116 -146 206 -174 40 -13 78 -27 85 -32 8 -6 12 -66 15 -186 3
-174 3 -178 32 -230 55 -98 221 -229 336 -266 69 -22 210 -39 276 -34 42 3 84
16 141 42 86 40 126 74 138 116 4 14 25 66 47 115 27 61 49 135 68 227 31 152
59 207 126 248 62 39 159 16 304 -70 48 -29 115 -22 147 14 66 77 26 184 -91
243 -27 14 -66 36 -86 48 -46 31 -134 48 -245 49 -87 0 -93 -1 -172 -43 -44
-23 -100 -61 -123 -84 -78 -79 -128 -215 -136 -372 -7 -126 -7 -127 -71 -195
-88 -96 -163 -122 -236 -83 -24 13 -53 17 -115 15 -97 -3 -130 10 -167 66 -39
60 -55 141 -55 286 l0 129 43 91 c36 78 42 100 42 157 0 56 -5 73 -30 114 -68
109 -237 166 -276 93 -10 -19 -5 -27 51 -77 47 -43 63 -63 63 -83 0 -40 -34
-90 -76 -113 -36 -20 -37 -20 -72 -1 -42 23 -74 71 -82 123 -7 50 -26 63 -92
63 -82 1 -159 40 -282 145 -108 92 -189 211 -252 370 -45 115 -57 203 -57 428
1 229 9 293 54 459 114 410 208 623 448 1008 140 224 213 373 240 487 11 48
29 117 39 153 24 84 44 285 32 330 -6 21 -12 30 -16 23z"/>
<path d="M3733 5669 c-41 -12 -157 -119 -195 -178 -97 -154 77 -391 288 -391
96 0 213 71 256 154 26 50 36 171 18 234 -15 57 -78 124 -146 158 -61 30 -165
41 -221 23z"/>
<path d="M4723 5350 c-18 -11 -33 -24 -33 -30 0 -5 18 -19 39 -30 51 -25 71
-55 71 -103 0 -52 -13 -73 -55 -87 -52 -17 -94 10 -120 78 -11 28 -24 50 -29
49 -23 -7 -49 -59 -54 -105 -5 -58 9 -90 67 -149 57 -60 124 -75 230 -52 84
18 171 127 171 216 0 103 -131 233 -236 233 -11 0 -34 -9 -51 -20z"/>
<path d="M3705 4793 c-106 -69 -133 -118 -123 -224 6 -57 27 -90 86 -136 162
-124 416 49 353 240 -25 75 -122 146 -211 155 -39 3 -53 -1 -105 -35z"/>
<path d="M3294 4426 c-64 -30 -182 -139 -205 -191 -23 -49 -23 -77 -3 -145 20
-69 117 -169 180 -188 55 -16 187 -15 227 2 41 17 111 87 144 144 21 35 26 57
26 112 0 124 -72 226 -190 270 -70 26 -117 25 -179 -4z"/>
</g>
</svg>
