<?xml version="1.0" encoding="UTF-8"?>
<svg viewBox="0 0 410.78522 385.95047" xmlns="http://www.w3.org/2000/svg">
 <g transform="translate(-167.81 -306.81)">
  <path transform="matrix(1.4203 0 0 1.4072 33.038 250.19)" d="m382 177.36a142.5 135 0 1 1 -285 0 142.5 135 0 1 1 285 0z" fill="#d9cf82" stroke="#000" stroke-width="4.244"/>
  <path transform="translate(133.7 321.92)" d="m382 177.36a142.5 135 0 1 1 -285 0 142.5 135 0 1 1 285 0z" fill="#e6d8d8" stroke="#000" stroke-width="6"/>
  <text transform="matrix(-.58104 -.77117 .83637 -.611 156.7 320.92)" x="-293.47623" y="-86.74769" fill="#f00" font-family="Bitstream Vera Sans" font-size="38.083" font-weight="bold" stroke="#000" stroke-width="3.1736">
   <tspan x="-293.47623" y="-86.74769">H</tspan>
  </text>
  <text transform="matrix(-.44925 -.85468 .92386 -.46832 156.7 320.92)" x="-270.70255" y="-47.22632" fill="#f00" font-family="Bitstream Vera Sans" font-size="38.083" font-weight="bold" stroke="#000" stroke-width="3.1736">
   <tspan x="-270.70255" y="-47.22632">E</tspan>
  </text>
  <text transform="matrix(-.21029 -.94238 1.0141 -.21062 156.7 320.92)" x="-245.46758" y="13.61754" fill="#f00" font-family="Bitstream Vera Sans" font-size="38.083" font-weight="bold" stroke="#000" stroke-width="3.1736">
   <tspan x="-245.46758" y="13.61754">L</tspan>
  </text>
  <text transform="matrix(-.08324 -.96197 1.0331 -.07403 156.7 320.92)" x="-213.86217" y="41.26208" fill="#f00" font-family="Bitstream Vera Sans" font-size="38.083" font-weight="bold" stroke="#000" stroke-width="3.1736">
   <tspan x="-213.86217" y="41.26208">L</tspan>
  </text>
  <text transform="matrix(.12083 -.95797 1.0256 .14478 156.7 320.92)" x="-172.70134" y="76.86987" fill="#f00" font-family="Bitstream Vera Sans" font-size="38.083" font-weight="bold" stroke="#000" stroke-width="3.1736">
   <tspan x="-172.70134" y="76.86987">F</tspan>
  </text>
  <text transform="matrix(.27627 -.92519 .98799 .311 156.7 320.92)" x="-128.74434" y="98.83572" fill="#f00" font-family="Bitstream Vera Sans" font-size="38.083" font-weight="bold" stroke="#000" stroke-width="3.1736">
   <tspan x="-128.74434" y="98.83572">I</tspan>
  </text>
  <text transform="matrix(.59779 -.75826 .80383 .65322 156.7 320.92)" x="-34.80906" y="121.63776" fill="#f00" font-family="Bitstream Vera Sans" font-size="38.083" font-weight="bold" stroke="#000" stroke-width="3.1736">
   <tspan x="-34.80906" y="121.63776">H</tspan>
  </text>
  <text transform="matrix(.35057 -.89967 .95944 .39029 156.7 320.92)" x="-98.90565" y="106.58271" fill="#f00" font-family="Bitstream Vera Sans" font-size="38.083" font-weight="bold" stroke="#000" stroke-width="3.1736">
   <tspan x="-98.90565" y="106.58271">S</tspan>
  </text>
  <g transform="translate(161.7 327.92)">
   <path d="m193.93 184.69 6.5885 0.85937 18.047 3.4375 11.745 4.2968 11.172 1.7187 6.8749-6.5885 6.302-8.3072h9.1666l-2.0052 6.0156-8.5937 8.0208-7.7343 5.1562-19.193-0.28646-15.182-5.1562-18.047 1.4323-6.8749 2.0052-3.4375-6.302 11.172-6.302z" fill="#e54e00" fill-rule="evenodd"/>
   <path d="m138.36 148.59 8.0208 3.4375 7.1614 2.0052 17.187-3.151 22.63-7.4478 11.745-2.2916h16.042l9.1666 3.4375 2.0052 2.2916h-14.323l-13.177 1.7187-11.172 5.4426-18.906 10.599-17.474 5.1562-11.458-0.28645-10.312-3.7239-8.3072-6.302-1.1458-4.8698 12.318-6.0156z" fill="#e54e00" fill-rule="evenodd"/>
   <path d="m152.68 153.75 19.479-3.151 22.916-7.4478 17.474-2.2916 18.906 3.7239 13.177 9.1666 9.453 1.4323 21.771-3.4375 14.323 2.2916 4.0104 9.1666-3.151 12.318-6.302 3.7239-18.906 0.85937-10.599 11.745-3.151 2.2916s-2.7213 3.6523-9.1666 3.7239-8.8085-0.07162-16.614-2.0052c-7.8774-1.9513-12.891-2.8646-12.891-2.8646l12.604 15.469 3.151 6.0156-13.75 6.5885-11.745 12.89-1.1458 11.745-18.906-0.28646 2.8646-8.8801 8.5937-10.312-6.302-13.463-6.0156-2.5781v-13.463l-7.7343-2.0052-22.057 3.4375-17.474 22.057-8.0208 20.625 1.1458 7.7343 16.901 21.771 21.198 27.213 14.896 12.031 14.609 6.302 9.1666 6.302h13.177l6.302-3.7239 6.5885-6.8749 28.073-8.8801 17.474-10.885 17.187-19.765 6.8749-10.599 15.469-9.7395 11.745-13.75 3.4375-10.312v-11.745l-2.0052-13.463-5.7291-10.312-2.2916-4.0104-4.8697-25.781-9.1666-22.057-7.7343-12.318-13.75-13.75-17.474-13.75-20.911-10.312-12.89-3.7239-15.182-3.4375-14.609 1.7187-15.182 1.7187-19.193 6.8749-14.323 12.891-11.458 15.755-4.8698 17.76-0.28645 7.7343 6.5885 5.1562 6.302 1.1458z" fill="#c83724" fill-rule="evenodd"/>
   <path d="m135.78 65.522 12.031 3.4375 16.042 6.5885 12.891 13.177 7.4478-0.57291 21.771-4.5833 12.891-0.57291 10.599 2.0052 20.052 5.7291 19.479 10.599 24.635 19.479 16.042 22.63 3.4375 7.4478 0.85937-14.896-3.4375-17.474-3.7239-9.7395-8.0208-6.302-10.312-24.922-6.0156-6.8749-5.4427 4.2968-11.745-9.453-8.8801-10.312-7.1614 5.7291-19.193-13.75-10.312-2.8646-1.1458 6.0156-6.5885 2.0052-26.354-9.453-10.885 0.28646 2.5781 7.4478-7.7343 3.151-15.755-0.57291-15.755 6.5885-2.2916 5.7291z" fill="#d67f00" fill-rule="evenodd"/>
   <path d="m286.74 154.04 6.8749 4.8698-0.85937 13.177-4.5833 5.4427-4.0104-1.7187-2.5781-7.4478 1.4323-13.177 3.7239-1.1458z" fill="#c60000" fill-rule="evenodd"/>
   <path d="m172.73 166.35 10.599-6.302 17.76-9.7395 13.177-2.8646 13.177-0.28645 12.604 3.151 5.1562 6.0156-3.7239 3.4375-2.2916 2.5781 8.0208 15.469 2.0052 10.312-7.1614 6.0156-11.745-2.0052-12.318-4.0104-8.3072-2.0052-11.458-0.85937-10.599-10.312-14.896-8.5937z" fill="#fff" fill-rule="evenodd"/>
   <path d="m240.62 160.91 5.1562-4.2968 13.75-2.8646 19.193-2.0052 6.0156 1.4323-2.0052 5.4426-1.4323 8.3072 3.151 9.1666-0.28646 4.0104-35.52-0.28646-6.5885-11.458-1.4323-7.4478z" fill="#540000" fill-rule="evenodd"/>
   <path d="m193.14 123.57 8.2294-13.342 8.7281-9.4762 8.4787-3.99 7.98 0.37406-1.6209 11.97-4.8628 15.835-7.6059 6.7331-8.1047 0.62344-9.1022-6.2344-2.1197-2.4938z" fill="#fff" fill-rule="evenodd"/>
   <path d="m223.07 106.86-5.985 1.6209-3.1172 7.6059 3.3364 3.4217 4.8897-0.82043 0.3773-2.726 1.8703-8.6034-1.3716-0.49874z" fill="#0000d6" fill-rule="evenodd"/>
   <path d="m220.74 318.51c1.5327-0.79258 4.0446-3.0903 5.5822-5.1061 3.2695-4.2865 5.9074-5.5223 18.05-8.456 10.718-2.5896 21.233-7.2728 28.678-12.773 7.4912-5.5341 18.678-18.474 22.734-26.297 3.0862-5.9523 3.8922-6.7497 9.4715-9.3691 8.067-3.7874 16.324-12.287 20.983-21.6 3.2925-6.5813 3.6155-7.9764 3.6155-15.618 0-9.653-2.271-17.401-7.0531-24.062-2.6046-3.6284-3.2944-6.0195-4.9078-17.012-3.8279-26.081-11.928-42.297-29.49-59.041-12.144-11.578-18.256-16.115-29.049-21.563-12.939-6.531-22.034-9.2765-25.9-7.8176-2.7681 1.0448-3.2502 0.8897-5.7544-1.8522-2.2133-2.4232-3.54-2.9925-6.9739-2.9925-5.1874 0-11.438 2.9055-16.2 7.5298-1.9652 1.9086-4.0454 3.4702-4.6227 3.4702-1.8665 0-1.1153-2.5896 1.4504-5 2.862-2.6887 3.2603-5 0.86153-5-3.1646 0-22.517 6.0448-27.661 8.6402-11.28 5.691-19.917 15.266-27.214 30.17-4.3812 8.9493-6.2748 16.914-5.1176 21.525 0.70477 2.808 6.7347 5.6725 11.901 5.6536 4.3595-0.01593 16.117-3.1045 28.095-7.3801 19.309-6.8926 38.797-7.0801 51.866-0.49905 3.4479 1.7363 8.2157 4.4923 10.595 6.1244 3.2614 2.2371 5.1075 2.8496 7.5 2.4884 16.55-2.4986 21.025-2.9006 27.875-2.504 9.0883 0.52612 12.441 2.3601 14.308 7.8264 1.1294 3.3071 0.71211 10.114-1.0538 17.188-0.58023 2.3243-0.29222 2.8799 1.9312 3.7252 1.4372 0.54643 2.6131 1.7321 2.6131 2.6348 0 1.3182-0.54142 1.4835-2.75 0.8398-1.5125-0.44084-7.025-0.81392-12.25-0.82907-8.5256-0.02473-10.167 0.2845-16 3.0147-4.504 2.1081-7.675 4.48-10.327 7.7242-2.1046 2.575-4.2421 4.4251-4.75 4.1112-2.0136-1.2445-0.69431-3.9108 4.0765-8.2388 5.2915-4.8003 6.2953-7.2139 3-7.2139-2.2102 0-3.844 1.5516-8.911 8.4627-5.4469 7.4294-7.0853 7.8987-19.283 5.5239-7.6194-1.4834-10.762-2.5542-12.056-4.1074-2.8527-3.4246-2.1782-4.1258 3.25-3.3792 4.6015 0.63287 5 0.52384 5-1.368 0-5.532-12.628-26.038-16.6-26.955-1.7005-0.39268-1.7973 1.2128-0.24762 4.1084 1.5257 2.8508 3.8516 21.97 2.8091 23.092-1.4626 1.5732-5.996-0.33715-6.9873-2.9444-0.52522-1.3814-2.1968-3.6043-3.7146-4.9398-3.9796-3.5013-16.016-9.6954-16.698-8.5927-0.318 0.51453 2.4789 2.9679 6.2154 5.4519 8.1758 5.4352 10.676 8.0236 9.8449 10.19-0.46237 1.2049-1.3644 1.4535-3.5403 0.97559-3.3745-0.74116-10.445 2.3803-11.476 5.0662-0.93284 2.4309 1.1806 4.6004 3.3504 3.4392 0.96055-0.51407 5.0758-1.6292 9.145-2.4782 11.321-2.3617 16.899-1.9512 16.899 1.2436 0 0.86611 3.1004 4.5305 6.8899 8.143s7.0859 7.2326 7.3254 8.0445c0.34213 1.1596 1.9627 1.4139 7.5555 1.1856 7.6571-0.3126 11.544 0.9634 11.032 3.6214-0.26618 1.3822-1.7693 1.6538-9.3103 1.6825-8.0616 0.03071-9.7178 0.37677-15.993 3.3416-8.2715 3.9082-12.791 7.9556-16.089 14.409-3.9473 7.7233-3.1575 9.9364 4.0075 11.23 7.1975 1.2992 19.492 10.738 18.24 14.003-0.90816 2.3666-1.8859 1.9541-7.9534-3.3554-3.0837-2.6985-7.0912-5.3764-8.9056-5.951s-9.525-1.2687-17.135-1.5424c-18.976-0.68261-20.09-1.8604-11.303-11.947 8.3801-9.6189 9.2595-12.483 5.6498-18.404-2.4614-4.0369-4.7987-4.1572-6.1378-0.31598-1.1935 3.4237-4.7791 6.066-8.2316 6.066-2.4685 0-14.642-10.816-14.642-13.01 0-0.68931 1.7019-0.83361 4.8719-0.4131 3.1571 0.41881 5.1137 0.25495 5.559-0.46556 1.0376-1.6788 4.5691-1.3404 4.5691 0.43783 0 0.85231-0.66315 2.832-1.4737 4.3994-1.2661 2.4484-1.2751 3.0145-0.06393 4.0197 1.9798 1.643 5.3354-0.31505 6.1582-3.5934 0.67634-2.6947-0.09776-12.849-1.1981-15.717-0.9769-2.5458-4.991-3.0843-13.328-1.7882-10.327 1.6055-15.214 4.1843-19.796 10.447-4.989 6.818-11.528 19.047-13.198 24.683-0.7335 2.475-1.7312 5.8046-2.217 7.3992-1.7363 5.6988-1.0722 7.5739 4.9362 13.937 5.909 6.2581 14.003 16.594 16.18 20.663 2.5864 4.8327 10.549 14.403 18.821 22.621 9.178 9.1181 19.592 15.379 25.58 15.379 2.1024 0 3.884 1.0118 6.1631 3.5 2.9996 3.2748 3.6025 3.5 9.3707 3.5 3.4119 0 7.4092-0.64351 8.9515-1.441zm-17.404-34.352c-2.7601-0.93909-6.6661-2.7372-8.6801-3.9958-4.3075-2.6919-9.8016-8.6826-9.8016-10.687 0-3.3123 2.555-2.4173 7.8493 2.7497 6.984 6.816 10.816 8.7948 18.359 9.4786 4.6963 0.42585 5.8222 0.85779 5.5792 2.1405-0.4307 2.2737-7.0848 2.4309-13.306 0.3144zm47.898-15.66c-0.80975-2.1102 0.25079-3.3079 3.5756-4.0382 6.5135-1.4306 15.058-10.663 17.421-18.825 0.72323-2.498 1.8942-4.3062 2.9161-4.503 2.8568-0.55017 2.18 6.4615-1.1909 12.338-6.0617 10.568-20.714 20.259-22.722 15.027zm13.125-127.54c-0.33706-0.54537 0.84578-3.1116 2.6285-5.7028 3.9498-5.7408 5.7642-10.589 5.8224-15.556 0.03272-2.7958 0.46247-3.75 1.6889-3.75 1.4216 0 1.5675 0.92514 1.074 6.8108-0.96844 11.552-8.1344 23.18-11.214 18.198zm-2.5052-6.9749c0-0.61224 0.94207-2.9598 2.0935-5.2167 1.6502-3.2348 2.0208-5.5023 1.75-10.71-0.27859-5.3585-0.06011-6.6066 1.1565-6.6066 1.229 0 1.4736 1.5625 1.3537 8.6475-0.15533 9.1815-1.7032 14.104-4.6113 14.664-0.95832 0.18455-1.7424-0.16537-1.7424-0.77761zm-60.5-1.1639c-1.1-0.65233-3.4782-2.4648-5.2848-4.0278-2.5138-2.1748-4.2965-2.8418-7.595-2.8418-4.7524 0-7.6202-2.1714-7.6202-5.7697 0-3.1443 1.8602-3.7102 4.3885-1.335 4.1206 3.8711 6.1163 2.8469 11.974-6.1452 6.4878-9.9588 10.564-14.183 16.59-17.193 6.407-3.1999 9.7354-3.8154 13.649-2.5239 4.7916 1.5814 6.1314 7.8464 2.2067 10.318-1.3477 0.84868-2.2031 0.51426-4.2022-1.6428-2.9825-3.2182-5.3559-3.3866-10.53-0.74703-4.8482 2.4734-8.8072 6.4205-13.44 13.399-5.0001 7.5329-5.0822 7.9557-2.2097 11.37 5.4576 6.486 12.171 6.506 10.876 0.03244-0.45492-2.2746-0.15543-3.3971 1.1637-4.3617 1.2344-0.90258 1.59-2.041 1.1657-3.7314-0.80326-3.2004 0.89369-7.8923 3.4266-9.4741 2.8014-1.7495 4.5061-0.47693 2.4317 1.8153-2.2955 2.5365-1.6277 7.4892 1.0098 7.4892 1.7328 0 2.0158-0.70609 2.1183-5.2849 0.13243-5.9185 0.55571-6.746 2.9756-5.8174 1.3957 0.53557 1.5912 1.6251 1.155 6.4361-0.64534 7.1169-4.5725 15.192-8.8795 18.259-3.6834 2.6228-12.269 3.6152-15.369 1.7765zm15.3-7.0696c1.8063-1.8063 1.4427-3.8-0.69301-3.8-1.9672 0-3.5303 2.5061-2.5512 4.0902 0.76416 1.2364 1.8112 1.1428 3.2442-0.29024zm37.676 2.048c0.40251-1.8414 0.94312-7.0604 1.2014-11.598 0.33552-5.8956 0.84333-8.25 1.7794-8.25 4.4 0 2.6058 21.979-1.8645 22.84-1.6101 0.31007-1.7538-0.07525-1.1162-2.992zm-58.715 114.55c2.9729-0.59459 5.2389-3.6618 5.2389-7.0913 0-2.1233 6.2889-11.516 10.302-15.387 1.7588-1.6963 5.0608-3.9099 7.3376-4.9192s4.4431-2.3256 4.8137-2.9252c0.82354-1.3325-9.8344-12.703-13.858-14.784-2.2527-1.1652-4.7205-1.3499-11-0.82324-8.4938 0.71237-10.485 1.5608-12.488 5.3196-1.7209 3.2304-0.63671 5.645 4.381 9.7566 6.8362 5.6018 8.6763 13.716 4.7574 20.979-0.58656 1.0871-2.7144 3.4294-4.7286 5.2051-5.2112 4.5943-3.2252 6.3629 5.2434 4.6692zm-69.188-5.4932c0.41243-0.2549 1.7015-4.7422 2.6598-7.1063 8.2187-20.273 14.713-29.979 25.766-35.217 5.9039-2.798 7.4211-3.0826 16.502-3.0954 9.7284-0.01375 10.085-0.09522 13.122-3 1.7169-1.6422 4.1833-3.7146 5.4808-4.6053 2.1036-1.4441 2.2025-1.8082 0.91285-3.3621-4.5697-5.5062-19.518-12.18-22.774-10.168-0.49519 0.30605-3.9021 1.036-7.571 1.6221-12.833 2.0501-30.327-3.08-34.643-10.159-2.4867-4.0786-2.5953-8.0055-0.27785-10.041 1.703-1.4955 2.9572-1.9703 8.3559-3.1632 2.4802-0.54806 2.6322-0.95919 3.1506-8.522 0.47764-6.9686 1.0797-8.9156 4.8941-15.826 2.3922-4.3341 5.4744-10.028 6.8494-12.654 3.2016-6.1137 10.384-13.632 16.787-17.572 2.82-1.7351 8.4644-4.7142 10.277-5.9958-1.7039-0.94661-5.3972-5.0521-9.1954-8.0353-1.3666-2.0705-17.787-10.444-27.803-11.577-3.361-0.38025-6.3691-1.1093-6.6848-1.62-1.2536-2.0283 2.0599-6.8168 6.9552-10.052 7.4746-4.9391 10.705-5.7564 22.754-5.7564 5.9355 0 11.034-0.39192 11.33-0.87092s-0.3524-1.8979-1.441-3.153c-2.5189-2.9043-2.4862-3.6344 0.22791-5.0869 4.2113-2.2538 14.682-1.504 21.793 1.5606 3.575 1.5407 9.6016 3.9021 13.392 5.2476 6.329 2.2463 7.0238 2.315 8.4986 0.84019s1.4596-1.8614-0.18586-4.7284c-2.6134-4.5535-1.0081-5.2846 6.3205-2.8788 7.8433 2.5748 13.624 5.93 20.049 11.636 5.9224 5.2599 8.319 5.6114 9.7754 1.4336 1.5798-4.5319 4.2617-3.8149 9.8068 2.6218 13.341 15.486 16.138 17.483 17.343 12.378 0.89283-3.7821 2.484-3.3927 6.9781 1.7075 5.1709 5.8684 6.5049 8.3879 10.148 19.166 3.552 10.508 5.0963 12.904 8.5765 13.308 3.778 0.43818 5.2482 4.5182 10.384 28.819 0.5231 2.475 0.65875 7.0936 0.30144 10.264-0.46651 4.1387-0.20513 6.9579 0.92716 10 2.3076 6.2 4.2904 14.979 5.7966 25.664 1.0171 7.2157 1.9775 10.383 4.0933 13.5 13.264 19.54 9.6475 46.578-8.1548 60.962-3.6435 2.9438-8.4908 6.3045-10.772 7.4682-3.2276 1.6466-4.8781 3.5047-7.443 8.379-5.0032 9.5084-22.199 26.471-31.597 31.17-8.8809 4.4397-16.136 7.1722-22.739 8.5638-9.847 2.0756-13.206 3.8818-16.975 9.1274-1.9633 2.7327-4.5721 5.3481-5.7974 5.812-3.0097 1.1394-15.859 2.16-17.728 1.4081-0.825-0.3319-3.4024-2.3392-5.7277-4.4606s-5.0252-3.8576-6-3.858c-2.385-0.00106-12.934-5.1496-17.272-8.43-9.5818-7.245-20.814-19.919-30.981-34.957-1.8173-2.6881-5.9721-7.8313-9.2329-11.429-5.8883-6.4975-8.9451-11.391-10.11-16.183m117.35-54.692c5.6044-3.8353 5.3325-6.6257-2.0883-21.429-3.3334-6.6498-5.847-12.304-5.5856-12.566s1.462 0.05301 2.6681 0.69852c2.6751 1.4317 4.4514 0.05434 3.5584-2.7592-0.67389-2.1232-5.1673-4.6256-6.6551-3.7061-0.50878 0.31445-0.92506 1.2202-0.92506 2.0127 0 0.80078-0.94038 1.441-2.1166 1.441-1.7115 0-1.9983 0.4307-1.4986 2.25 1.7591 6.4047 2.7901 17.045 2.2619 23.344-0.62386 7.4406-0.05006 9.116 3.8533 11.251 2.7387 1.498 3.6648 1.4217 6.5275-0.53731zm-34.027-15.434c0-4.881-4.0076-20.739-5.6584-22.389-1.9227-1.9227-2.1934-1.8904-6.3416 0.75537-1.925 1.2278-5.9724 3.5886-8.9941 5.2463-6.5878 3.6139-7.5561 5.9958-2.8059 6.9023 5.1168 0.97648 12.894 4.9976 17.3 8.9449 4.9876 4.4681 6.5 4.5939 6.5 0.54044zm53.152-3.0782c0.38473-2.7067 2.1929-7.1739 4.2581-10.52 1.9742-3.1984 3.5894-6.369 3.5894-7.0456 0-1.8997-5.1295-1.4487-8.7703 0.77109-6.5352 3.9845-13.584 18.311-10.518 21.377 0.39137 0.39138 2.9752 0.57888 5.7419 0.41667l5.0303-0.29492 0.66867-4.7044zm18.791 4.2607c1.1769-0.7446 1.223-1.3962 0.25-3.5317-1.45-3.1823-1.5496-10.795-0.20281-15.491 1.2648-4.41 0.0662-5.6314-3.6436-3.713-1.8902 0.97746-4.5127 4.3941-7.6149 9.9209-4.4711 7.9655-5.5895 11.567-4.0651 13.092 1.0011 1.0012 13.618 0.77235 15.276-0.27703zm-52.452-12.462c-2.4139-16.257-3.1071-17.161-12.274-16.016-6.1977 0.77435-7.9039 2.8897-4.2744 5.2996 2.6352 1.7497 12.055 13.872 12.061 15.521 0.00205 0.60548 0.93198 2.6234 2.0665 4.4844 3.4391 5.6411 4.2027 2.7112 2.4208-9.2889zm60.846 8.9252c4.6619-4.6619 1.7719-19.677-3.1963-16.607-3.0076 1.8588-4.0542 12.338-1.5844 15.865 1.8273 2.6088 2.7681 2.7549 4.7806 0.74233zm-39.359-9.3109c3.3708-7.1276 2.8497-7.9963-3.4787-5.7982-3.0708 1.0666-4.072 1.9779-4.31 3.9229-0.35046 2.8642 2.4318 8.9591 3.8708 8.4795 0.51889-0.17297 2.282-3.1448 3.918-6.6041zm-78.421-0.70436c4.5254-1.8733 11.314-5.3742 15.085-7.7798 11.002-7.0173 27.041-11.63 35.483-10.204 3.7086 0.62657 5.5184-0.67645 2.5315-1.8226-7.3878-2.835-25.366-1.1955-38.157 3.4796-16.035 5.861-23.124 7.931-29.121 8.503-5.2437 0.50022-6.9445 0.20669-11.871-2.0486-6.7683-3.0986-7.3622-3.1468-11.931-0.96828-8.5535 4.0789-4.0689 9.4504 11.531 13.812 7.7323 2.1617 16.401 1.1878 26.448-2.9714zm140.43-31.099c-0.60507-3.7982-1.4857-7.2942-1.957-7.7688-2.8761-2.8964-4.883 5.7879-2.4462 10.585 4.1452 8.1602 5.9662 6.9955 4.4032-2.8162zm-6.7216-14.846 0.23356-6.8361-3.5-1.9747c-4.3392-2.4482-4.3947-2.5362-7.5665-11.999-1.4288-4.2625-2.8983-7.7501-3.2656-7.7502s-0.61736 5.8867-0.55561 13.082l0.11227 13.082 5.8542 5.916c7.1064 7.1813 8.3391 6.6819 8.6877-3.52zm-17.448-12.607c0.49742-6.865-1.6875-24.104-3.383-26.692-1.2841-1.9598-2.0781-2.2309-4.9539-1.6914-2.9154 0.54694-4.1794 0.08848-8.5-3.0832-2.7914-2.0491-5.2273-3.5593-5.413-3.356s0.5382 4.6447 1.6086 9.8697 1.744 11.13 1.4969 13.123c-0.54301 4.3771-0.26096 4.8366 4.8261 7.8616 2.2 1.3082 5.7188 3.899 7.8195 5.7574s4.3507 3.2042 5 2.9909 1.3237-2.3643 1.4988-4.78zm-22.791-17.817c-0.54835-4.917-1.5204-8.3103-2.9245-10.21-1.1568-1.5646-2.1032-4.2038-2.1032-5.865 0-4.6216-2.9117-11.061-5.0016-11.061-0.98144 0-2.0434 0.675-2.36 1.5-1.3442 3.503-6.3853 1.5761-14.774-5.6472-3.0997-2.669-6.1372-4.8528-6.75-4.8528-1.3596 0-1.4664 2.246-0.16883 3.55 1.9704 1.98 8.87 16.471 10.518 22.09 2.7413 9.3486 3.3977 10.484 6.7672 11.705 1.7525 0.63518 6.1301 2.5624 9.7281 4.2827s6.8453 2.8453 7.2163 2.5 0.30493-3.942-0.1468-7.9926zm-76.189-2.1481c3.4865-1.0929 7.3689-1.9871 8.6276-1.9871s2.8202-0.64071 3.4701-1.4238c1.8139-2.1856-1.3408-7.802-12.585-22.405-1.4098-1.8309-3.9297-4.16-5.5999-5.1757-2.961-1.8007-3.1264-1.7987-6.6296 0.07892-2.9192 1.5646-5.658 1.9275-14.608 1.9354-9.5806 0.0085-11.701 0.32904-16.282 2.4617-4.7149 2.1951-7.2955 4.7996-6.0196 6.0755 0.2534 0.2534 3.1106 0.95058 6.3493 1.5493 9.1294 1.6876 17.282 5.9454 26.329 13.75 4.5604 3.9343 8.8128 7.1475 9.4498 7.1404s4.0108-0.9071 7.4973-2zm50.981-1.2734c0.62295-3.2678-14.642-33.048-17.503-34.146-0.74712-0.2867-1.9836 0.82005-2.9034 2.5988-1.576 3.0477-1.6959 3.0884-7.3537 2.497-3.8871-0.40628-8.8434-2.0959-15.289-5.2121-10.47-5.0619-17.771-6.7824-17.771-4.1879 0 0.84008 2.2168 2.9499 4.9261 4.6885 7.3176 4.6957 17.116 17.353 20.701 26.742 1.3292 3.4805 2.2028 4.3706 4.7607 4.8505 1.723 0.32323 4.3948 0.10784 5.9374-0.47864 4.4872-1.706 7.7732-1.2445 14.146 1.9869 6.451 3.2711 9.8102 3.4855 10.349 0.66046z" fill="#0d0d0d"/>
  </g>
 </g>
</svg>
